<?xml version="1.0" standalone="no"?>
<!DOCTYPE svg PUBLIC "-//W3C//DTD SVG 20010904//EN"
 "http://www.w3.org/TR/2001/REC-SVG-20010904/DTD/svg10.dtd">
<svg version="1.0" xmlns="http://www.w3.org/2000/svg"
 width="109.000000pt" height="109.000000pt" viewBox="0 0 109.000000 109.000000"
 preserveAspectRatio="xMidYMid meet">
<metadata>
Created by potrace 1.14, written by Peter Selinger 2001-2017
</metadata>
<g transform="translate(0.000000,109.000000) scale(0.100000,-0.100000)"
fill="#000000" stroke="none">
<path d="M817 824 c-1 -1 -64 -4 -140 -7 -77 -3 -141 -8 -144 -11 -5 -4 -9
-35 -13 -91 -1 -15 -3 -16 -7 -5 -12 34 -60 72 -109 86 -59 17 -284 16 -307
-1 -8 -6 -12 -29 -11 -60 2 -75 2 -75 35 -75 l31 0 -5 -104 c-5 -109 -10 -131
-32 -122 -17 6 -27 -23 -30 -82 -3 -75 1 -77 187 -77 154 0 165 1 201 23 82
51 92 160 21 226 -26 23 -27 26 -11 43 9 10 20 30 26 43 9 24 10 24 10 3 1
-29 14 -35 75 -38 71 -3 76 1 76 52 0 24 4 42 8 39 5 -3 8 -58 8 -123 l-1
-118 -35 -5 -35 -5 0 -65 0 -65 145 -2 c80 -1 153 3 163 9 15 8 18 19 16 61
-3 70 -5 72 -41 75 -18 2 -33 4 -35 6 -8 8 -14 236 -7 236 5 0 10 -17 12 -37
1 -21 6 -41 11 -46 11 -11 103 -13 119 -3 17 10 16 235 0 238 -15 2 -179 4
-181 2z m-479 -187 c2 -10 -3 -17 -12 -17 -10 0 -16 9 -16 21 0 24 23 21 28
-4z m15 -192 c1 -6 -8 -11 -20 -13 -18 -3 -23 2 -23 17 0 16 4 19 21 13 11 -5
21 -12 22 -17z"/>
</g>
</svg>
